<svg id="Calque_1" data-name="Calque 1" xmlns="http://www.w3.org/2000/svg" viewBox="0 0 289.6 289.6">
    <defs>
        <style>.cls-1{fill:#0064fb;}.cls-1,.cls-2{fill-rule:evenodd;}</style>
    </defs>
    <g id="logo-eShard-cropped_1_" data-name="logo-eShard-cropped (1)">
        <g id="g1535">
            <g id="g1537">
                <path id="path1539" class="cls-1"
                      d="M59,281C34.8,227.2,44.6,160.3,82.4,115.2c31.4-40.1,82.2-65.5,133.5-63a164.7,164.7,0,0,1,42.3,7.4,230.2,230.2,0,0,0-76.5,14.6,222.1,222.1,0,0,0-35.1,16.9c-5.5,3.4-10.9,7-16.2,10.9s-10.2,8.1-15,12.5a152.1,152.1,0,0,0-11.9,12.2c-3.8,4.3-7.3,8.7-10.7,13.3a183.8,183.8,0,0,0-17.2,29.4A186.6,186.6,0,0,0,58.2,235a218.2,218.2,0,0,0,.9,46.4Z"
                      transform="translate(-45.8 -52)"/>
                <path id="path30" class="cls-1"
                      d="M323.7,134.7C247.2,161,168.7,185,96.4,221.9c-4.1,10.9,99.1,8.6,109,18.6,11.9,10.5,6.1,98.7,19.2,101.1C236.3,334.3,323.7,134.7,323.7,134.7Zm-20.1,21.9-74,143.8-5.9-64.9Z"
                      transform="translate(-45.8 -52)"/>
            </g>
        </g>
    </g>
</svg>
